<svg width="21" height="21" viewBox="0 0 21 21" fill="none" xmlns="http://www.w3.org/2000/svg">
<path d="M11.0786 7.63392C11.4287 7.28108 11.4264 6.71124 11.0736 6.36113C10.7208 6.01103 10.1509 6.01325 9.80082 6.36608L6.07988 10.1161C5.73171 10.467 5.73171 11.033 6.07988 11.3839L9.80082 15.1339C10.1509 15.4868 10.7208 15.489 11.0736 15.1389C11.4264 14.7888 11.4287 14.2189 11.0786 13.8661L7.98662 10.75L11.0786 7.63392Z" fill="white" stroke="white" stroke-width="0.3" stroke-linecap="round" stroke-linejoin="round"/>
<path d="M7.23584 9.85C6.73878 9.85 6.33584 10.2529 6.33584 10.75C6.33584 11.2471 6.73878 11.65 7.23584 11.65H14.7813C15.2784 11.65 15.6813 11.2471 15.6813 10.75C15.6813 10.2529 15.2784 9.85 14.7813 9.85H7.23584Z" fill="white" stroke="white" stroke-width="0.3" stroke-linecap="round" stroke-linejoin="round"/>
<path d="M10.75 0.85C5.28419 0.85 0.85 5.28419 0.85 10.75C0.85 16.2158 5.28419 20.65 10.75 20.65C16.2158 20.65 20.65 16.2158 20.65 10.75C20.65 5.28419 16.2158 0.85 10.75 0.85ZM2.65 10.75C2.65 6.27831 6.27831 2.65 10.75 2.65C15.2217 2.65 18.85 6.27831 18.85 10.75C18.85 15.2217 15.2217 18.85 10.75 18.85C6.27831 18.85 2.65 15.2217 2.65 10.75Z" fill="white" stroke="white" stroke-width="0.3" stroke-miterlimit="10"/>
</svg>
