<svg width="23" height="16" viewBox="0 0 23 16" fill="none" xmlns="http://www.w3.org/2000/svg">
<path d="M11.25 10.625C12.9069 10.625 14.25 9.28185 14.25 7.625C14.25 5.96815 12.9069 4.625 11.25 4.625C9.59315 4.625 8.25 5.96815 8.25 7.625C8.25 9.28185 9.59315 10.625 11.25 10.625Z" fill="#292556"/>
<path d="M17.7572 2.24281C15.7078 0.8375 13.5145 0.125 11.2387 0.125C9.19078 0.125 7.19438 0.734375 5.30484 1.92875C3.39937 3.13578 1.53141 5.32812 0 7.625C1.23844 9.6875 2.9325 11.8081 4.69687 13.0241C6.72094 14.4181 8.92172 15.125 11.2387 15.125C13.5356 15.125 15.7317 14.4186 17.7684 13.0255C19.5614 11.7969 21.2677 9.67906 22.5 7.625C21.2634 5.58922 19.5516 3.47375 17.7572 2.24281ZM11.25 12.125C10.36 12.125 9.48995 11.8611 8.74993 11.3666C8.00991 10.8721 7.43314 10.1693 7.09254 9.34708C6.75195 8.52481 6.66283 7.62001 6.83647 6.74709C7.0101 5.87418 7.43868 5.07236 8.06802 4.44302C8.69736 3.81368 9.49918 3.3851 10.3721 3.21147C11.245 3.03783 12.1498 3.12695 12.9721 3.46754C13.7943 3.80814 14.4971 4.38491 14.9916 5.12493C15.4861 5.86495 15.75 6.73498 15.75 7.625C15.7486 8.81806 15.2741 9.96185 14.4305 10.8055C13.5869 11.6491 12.4431 12.1236 11.25 12.125Z" fill="#292556"/>
</svg>
