<svg width="22" height="18" viewBox="0 0 22 18" fill="none" xmlns="http://www.w3.org/2000/svg">
<path d="M9.5 15.125V15.125C9.13711 16.0927 9.85248 17.125 10.886 17.125H17.5397C18.0872 17.125 18.3609 17.125 18.5645 17.0912C19.9518 16.8605 20.876 15.5314 20.6091 14.1506C20.57 13.948 20.4747 13.6914 20.284 13.1781V13.1781C20.1253 12.7509 20.046 12.5373 19.9537 12.3509C19.3451 11.1209 18.1484 10.2889 16.7836 10.1466C16.5767 10.125 16.3488 10.125 15.8931 10.125H14.1075C13.8945 10.125 13.788 10.125 13.6821 10.1306C13.4157 10.1447 13.1513 10.1855 12.893 10.2523C12.7904 10.2788 12.6889 10.3108 12.4857 10.375V10.375" stroke="#292556" stroke-width="1.5" stroke-linejoin="round"/>
<path d="M12.5996 5.625C12.5996 4.10622 13.8308 2.875 15.3496 2.875C16.8684 2.875 18.0996 4.10622 18.0996 5.625C18.0996 7.14378 16.8684 8.375 15.3496 8.375C13.8308 8.375 12.5996 7.14378 12.5996 5.625Z" fill="#292556"/>
<path d="M5.1 3.625C5.1 2.10622 6.33122 0.875 7.85 0.875C9.36878 0.875 10.6 2.10622 10.6 3.625C10.6 5.14378 9.36878 6.375 7.85 6.375C6.33122 6.375 5.1 5.14378 5.1 3.625Z" fill="#292556"/>
<path d="M13.5948 11.5944C13.4645 10.9784 13.3994 10.6703 13.3081 10.406C12.748 8.78422 11.3144 7.6221 9.61185 7.40964C9.33431 7.375 9.01946 7.375 8.38976 7.375H7.23587C6.58569 7.375 6.2606 7.375 5.96821 7.41349C4.46381 7.61153 3.16052 8.55439 2.50174 9.92129C2.37371 10.187 2.27199 10.4957 2.06857 11.1133C1.82585 11.8501 1.70449 12.2185 1.66869 12.5134C1.4797 14.0698 2.52108 15.5093 4.05849 15.8167C4.34977 15.875 4.73765 15.875 5.51343 15.875H10.1248C10.7369 15.875 11.043 15.875 11.2835 15.8357C12.7862 15.5899 13.8665 14.2573 13.796 12.7363C13.7848 12.4928 13.7214 12.1933 13.5948 11.5944Z" fill="#292556"/>
</svg>
