<svg width="24" height="24" viewBox="0 0 24 24" fill="none" xmlns="http://www.w3.org/2000/svg">
<path d="M2.91199 14.3548H14.29M2.91199 14.3548L14.2316 14.3537C14.2512 14.3537 14.2706 14.3541 14.29 14.3548M2.91199 14.3548L2.91199 18.24C2.91199 18.7702 3.44925 19.2 4.11199 19.2H14.232C14.8947 19.2 15.432 18.7702 15.432 18.24V15.3137C15.432 14.7991 14.9258 14.379 14.29 14.3548M2.91199 14.3548L2.91199 9.50822M14.29 14.3548H19.888C20.5507 14.3548 21.088 13.925 21.088 13.3948V10.4682C21.088 9.93803 20.5507 9.50822 19.888 9.50822M2.91199 9.50822H19.888M2.91199 9.50822L2.91199 5.75999C2.91199 5.2298 3.44925 4.79999 4.11199 4.79999L8.91199 4.79999C9.57473 4.79999 10.112 5.2298 10.112 5.75999V8.54822C10.112 9.07841 9.57473 9.50822 8.91199 9.50822L19.888 9.50822M2.91199 21.6V2.39999" stroke="white" stroke-width="2" stroke-linecap="round" stroke-linejoin="round"/>
</svg>
