<svg width="26" height="22" viewBox="0 0 26 22" fill="none" xmlns="http://www.w3.org/2000/svg">
<path d="M15.4 14.1402V13.9464M15.3995 11.1374V10.9435M15.3995 8.14723V7.9534M6.01172 2.45978H13.001C13.0407 3.87484 14.2003 5.00978 15.625 5.00978C17.0496 5.00978 18.2092 3.87484 18.2489 2.45978H19.9882C22.0934 2.45978 23.7999 4.16636 23.7999 6.27154V15.7285C23.7999 17.8337 22.0934 19.5402 19.9882 19.5402H18.2489C18.2092 18.1252 17.0496 16.9902 15.625 16.9902C14.2003 16.9902 13.0407 18.1252 13.001 19.5402H6.01173C3.90655 19.5402 2.19996 17.8337 2.19996 15.7285L2.19995 6.27154C2.19995 4.16636 3.90654 2.45978 6.01172 2.45978Z" stroke="white" stroke-width="3" stroke-linecap="round" stroke-linejoin="round"/>
</svg>
